<mxfile host="65bd71144e">
    <diagram id="HIP3nbAZw_EuaXWnEj3U" name="Page-1">
        <mxGraphModel dx="1209" dy="804" grid="1" gridSize="10" guides="1" tooltips="1" connect="1" arrows="1" fold="1" page="1" pageScale="1" pageWidth="850" pageHeight="1100" background="#00ffff" math="0" shadow="0">
            <root>
                <mxCell id="0"/>
                <mxCell id="1" parent="0"/>
                <mxCell id="7" value="&lt;font color=&quot;#ff0000&quot;&gt;&lt;span style=&quot;font-size: 24px;&quot;&gt;Volume of a Sphere, with a Quere String&lt;/span&gt;&lt;/font&gt;" style="swimlane;whiteSpace=wrap;html=1;startSize=50;fillColor=#ffff00;" parent="1" vertex="1">
                    <mxGeometry x="50" y="100" width="1019" height="590" as="geometry"/>
                </mxCell>
                <mxCell id="8" value="Formula" style="text;html=1;align=left;verticalAlign=middle;resizable=0;points=[];autosize=1;strokeColor=none;fillColor=none;fontSize=24;fontColor=#000000;" parent="7" vertex="1">
                    <mxGeometry x="445" y="80" width="110" height="40" as="geometry"/>
                </mxCell>
                <mxCell id="31" value="V = 4 / 3&amp;nbsp;π r³" style="text;html=1;align=left;verticalAlign=middle;resizable=0;points=[];autosize=1;strokeColor=none;fillColor=none;fontSize=24;fontColor=#000000;" parent="7" vertex="1">
                    <mxGeometry x="420" y="127.75" width="160" height="40" as="geometry"/>
                </mxCell>
                <mxCell id="32" value="" style="shape=image;verticalLabelPosition=bottom;labelBackgroundColor=default;verticalAlign=top;aspect=fixed;imageAspect=0;image=data:image/png,iVBORw0KGgoAAAANSUhEUgAAAKoAAAC2CAYAAABJYhZiAAAAAXNSR0IArs4c6QAAHr5JREFUeJztnWlzU9fW53+aZ8mS5RHjAU+AMRgMBHAIcyAEkpCJJ3nyfJf+Al3V1V39ovtFd1XXfW7uzU0uGQkkQCDEAQwGgzHgeR5kS9Ysa1a/8BCTS4I1WZJ9flWqIxuftRfS/+xz9t5rryWqrKqJISCQ5Ygz7YCAwEoQhCqQEwhCFcgJBKEK5ASCUAVyAkGoAjmBIFSBnEAQqkBOIAhVICcQhCqQEwhCFcgJBKEK5ASCUAVyAkGoAjmBIFSBnEAQqkBOIM20A7mAWCwm32zGaMonL8+I3mBAp9Oh0WpRqdQolUpkcjkyqRSxRIJIJCIWixGNRAiFw4SCQfx+P3NzPrweD263G5fTicNhxz5rw2a1Eo1GM/3fzGoEof4OkUjEhrKNlG4oo7i0hKKiEgoKC7FZZ5i12XA47DidTibGRvF6vfh8PgJ+P8FggFA4TDQSIRaLIRKJEEskyKRS5HIFCqUStVqNRqNBq9djyDNQUVmJKT+ffHMBM9PTWCyTTE1MMjE+xvjYKLGYsPliEZGwFQU2lJVRuamaisoqNpZXMG2ZYmJsjMnJCSxTU8xMW9La44nFYgoKiygqLqakpJTSsjIKi4oZHRlmeGiQoYF+xsfG0tZ+LrBuhVpTW0dt/WZq6uqZ8/kYHOhneHCAkeEhgsFgpt1DLpdTXlFJRdUmqjZVo1Kr6evpprf7GX29PZl2b9VZV0It21hOQ2MjW7Zuw2a10t39lL6ebmZttky79lJM+fnU1NVTX7+FfLOZp08e09XZydjoSKZdWxXWvFClUilNu5rZ3rQTqVRKV2cnT7o6sc/OZtq1hDGaTGxtaKShsZFwOMyjjgd03G8nHA5n2rW0sWaFmpdnpHnPXnbu3kNfTzcPO+4z2N+fabdSTlV1NTuadlFTV8+De3dpv9uGw2HPtFspZ80JNd9sZu++AzTuaOJe2x3u32vDYV97X9zvyTMa2bV7L7v37qXz4UPabv+KzWrNtFspY80IVW8wcODVg2zb3sSdW63cvX0Lv9+fabdWHaVSyZ59+3llfwtdnY9ovXkDl9OZabeSJueFKhKJOHjoCC2vHeJ26y/car25LgX6ezQ6HUePv862xu20/nyDmzd+yul52ZwWakPjdg4dOcbIyBC/3Li+Lm7xK8VkNhMOhRCLxbx66DDl5ZXc+OkqXZ2PMu1aQuSkUI1GE0dPvI7eYOD6tStrcpCUDHKFgvyCAibHx2GhF62qrubw0eO4nE6u/fgDdntuzXrknFCb9+zl+MlT/HLjOq03f860O1mJubAQ/9wcHrf7X/6t5eBrvHroMFcuX6L9blsGvEuMnBGqRqPl5Ok3UWu0XLl8kanJyUy7lJUoVSoMRiOWiYk//JvikhKOnzyNz+vh8sXv8Ho9q+hhYuSEUGvr6jl15i0ePbjPjZ+uZtqdrKaguBiv243P633p3x46coztO3dx6duv6e3pXgXvEkeSZzT9l0w78We0vHaI144c5dK3X3O//W6m3clq1BoNcoUC5woHlcNDg9htNt44+xZSmYzR4eE0e5g4WdujikQizp57D41Gw3dfXcDlcmXapaynqLQUp92Of24urvP0ej1vvn0Or9fLNxe+yMpprKwUqiEvj7ff/QDL1CSXL36baXdyAq1Oh0KpxDYzk7CNk6fPUFRcwlf//AdOhyOF3iVP1t36SzeUcf7jT+jqfMT1a1cy7U5OIBKJyC8owGG3E4lEErbT39uDWq3h5OkzjI+N4nZnz10sq4RaVV3N+Y//g5+u/ED73TuZdidn0BsMRKNRvC+YjoqXsdERAgE/77z/IZOT41mziJI1Qq2t38z5j/+DC59/xpPHnZl2J2eQSCTkFxQwa7OlbBeCZWoKq3WG8x9/wtTUJLO2zAe3ZIVQ6zZv4d0PzvPZX/+yLqPXk8FgNBIMBJhbwXRUPNisVsbHRnn//EfMTE9nPBIr49ula2rr5kX66V8Y6O/LtDs5hUwmQ6PV4k5TdNRAfx+fffoX3v3gPDW1dWlpY6VkVKjlFZW8f/4jPv/bX4X1+gTQGQy4nc60bjwc7O/n87/9lffPf0R5RWXa2nkZGRNqQWEh7354nq8vfCHc7hNArpjfgr0asaZ9vT18feEL3v3wPAWFhWlv70VkRKhKlYp33vuQm9d/4knX40y4kPPoF3rT1eJJ12NuXv+Jd977EKVKtWrtLpIRob597j16u5/lVPRONqFUqZBIJC+Mjkon7Xfb6O1+xtvn3lvVdiEDQj1x6jSBQECYzE8CvcGAO0NLytevXSEQCHDi1OlVbXdVhdq0q5nyikq++fLCaja7plBrNMRisRVFR6WLb768QHlFJU27mletzVUTanFJKafPvs3Fb74kElm7+8/TTSZ700UikTAXv/mS02ffprikdFXaXDWhnnrzDN9/+w2TfxLQK/DnaPV6QqFQ3NFR6WByYoLvv/2GU2+eWZX2VkWox06cxGa18kCIJ00YkUiEXq9f1ZH+y3jQfheb1cqxEyfT3lbahbqppoYt2xr58dLFdDe1ppErFPh8vqxI4LacHy9dZMu2RjbV1KS1nbQL9diJU1y9/L2w1z5JAn4/jizMl+X3+7l6+XuOnTiV1nbSKtRDR48zNTnB0ydd6WxGIMM8fdLF1OQEh44eS1sbaRNqYVExe/ft5/pVYb50PXD96hX27jtAYVFxWuynLczvjbNv8ajjAYNCRFScqCnffZxjr5/gQA2MjsqoP3iCI0d3Y7A9ZtSZdTuHAAgGA4TDYbY37UxLPHFaetS6zVswGPJou/VrOsyvcXyM3Puea49nkRRuZ1+DlMEnk0Rkesz5mkw796e03foVgyGPus1bUm47LcUmWg6+RuvNG+kwvW5QqBRg7+Z2Wz8OeYCuhz7s3dmzh+mPaL15g5aDr9Hz7GlK7aa8R93etJNAIMAzYQCVBGqKzHqC02PYo4B/jK5bD5jwZdqvl/PsSReBQIDtTTtTajflQn1lfwu3W39Jtdn1haQAswns0zMkvqc0c9xu/YVX9rek1GZKhdq4owmPxy1sKUkWYwlmmQvLdA50oS9goL8Pj8dN446mlNlMqVB3732Fe3dup9LkukRuLkAXmcGaffP7K+bendvs3vtKyuylTKiLm7+yPdlWLmAuLEBin8ESyrQnibOog1RtCkzZqL+peTcP2u+lyty6ZuLn/8P/zrQTKeBB+z2amnenZE9cSnpUU34+GzeW03G/PRXmBNYIHffb2bixHFN+ftK2UiLUxh1NPHrYkQpT6xaRSJRpF9LCo4cdKRlUpUSo2xp38PjRw1SYWrcYjEbUmuxeeUqEx48esq1xR9J2khbqpuoaPB43likhVXmiyGQy1BpNVkTupxrL1CQej5tN1cnFqyYt1M1bG4QwviTRLeyDSmfGk0zy9EkXm7c2JGUjaaHWb95C99MnyZpZtyiUShQKRVZtMUk13U+fUJ9koEpSQq2qrsZms2ZdduJcQqfXr4kSkH+G0+HAZrNSVV2dsI2khFpdU0d/b28yJtY1KrUaiUSC15P95XOSpb+3l+qaxCf/kxLqpupqBvoFoSbKeuhNFxno72VTJnrUvDwjSpVK2KefIBqtllgsxpwvNwNP4mVyYgKlSkVenjGh8xMWanllJSNDQ4mevu7RGQzrpjddZGRoiPLKxHKsJizUso3ljI5kbwGtbEan1xMKBgmssy3koyPDlG0sT+jchINSNpRt5P693E0bKRKJEEskiMVixCIRIrEYsVg8f1z4WSQSvfCFSIRo3sjSEeBFi6AxWKrwvPherlAQDATILyggFovNv6JRYrEY0eXvo1Fi0SjRhffRSCSn51rHx0bZtXtvQucmJFSFQoHRZMq6wrkikQiJVIpEIll6iRePYvHSz2Lx/I0kGo0uvWLLjwviiUYivwlp2YtYjBj8VuFu4ecX+jTv2NJ7jU5HwO9fGukvXQALF4ZYJEIkk82/X37xLHstijayKN6F95HF9+EwkUgkqZpT6WBqchKjyYRCoSAQCMR1bkJCLSouYWoyM4MoqVSKVCZDKpUikUp/O0okiMTi+S9o2RcVjUQIBYNEl32R0YUea7WRSKWoNRqmxscJhxPPaCgWi+cvwIXj4sUol8ufu0iXfx7hcHjpGA6HCYdCGemdpyYnKCouYWQ4vvFNQkItLCpi2mJJ5NQVI5PJkMnlSGUyZDLZkjijkcjSBx0Oh/EFAvNfwIIIsxmdXo/b5UpKpPDbneBlVkQi0bxoFy5oqVQ6P3crlSKTSonGYoRDIUKh0NJx8aJOF9MWC4VFRasjVHNBAdaZ6UROfSEyuRy5XP7cMbLQE4ZCIeZ8vqUPMxsLyq4EmVy+1JuuFrFYbKkHfdGNViKRLHUEMpkMlUaDXCYjEo0SCgYJBoPzx0AgZeK1zkxjLiiI+7yEhGrKN9OdxL5thUKBfGGNW65QEI1GCQYCBINB5rxegsFgzgryj9AtpIzMpsHQ4uPR72cfpFLpfKehUKDT65ErFIRDIQKBAMFAgIDfn/Dzr81mTShBRUJCNRpN2OPILCeRSlEqlShVKhRKJZFweGlAMWu1ZtWXlw4USiVyhYLZDFe/WymLvfDyxQi5XI5cqUSlVpNnMs330nNz+P3+uKbZ7LOzGI2muH2KW6gikQhDXt5LA1EkEgkqtRqVWo1coWDO52PO58M+O5v1z5KpRpdlCXgTIbjwKLAYlSBXKOZXmoxGxBLJ0vf7MtE6HQ4MeXmIRKK47ppxC3VxQPBHjShVKtQaDWqNBp/Xi9vlyr2AYG01e1p2U19VgNr9gK8+bcWSYKevUqsRr8HAk+DCY4DL4ZgfpGk05BmNIBLh83rxeTwvfDyIxWK4Xa644xziFqpWq8Xj+df6RmqNBq1Oh0gkwuvxYLfZcvc509PP3cuzhD/8d3Y4p7Am8WSiW+XCZZkgHA7jdjpxO53IFQo0Wi3FGzbgdbvxeDyEQ8/v+/Z43Gi12vQKVa3WPFc6RqFUojcYEIlEuF2utRNkITFhNoD96WTCaXU0Wi2xaHTtfCYrYLGndToc6PR6iktLcTmd86Jc6Lh8Xi9qdXz7w+IWqlKlYm7hVq7Py0Or0+GYnc1o3aO0YC7GLHExaElcZDqDAbvNlkKncodoJILTbsfjcmEwGiksKsJht8+XbJ+bi7tMZdxCXVz+MppMSGUypsbH18SoXV7YyL691ajnXPjEGtT6AnShMSwJ6my9Bp78nkgkwqzVikarxVxYiG1mhkAggEKhiMtO3EKVLaxDS2UyZtK8OrVaSDa0cOZkGROXv+Tn8QCIC9hz/jzls5NY4rzvN+/ZS+OOHYhEYh53PsI2M5Mep3MMr8dDLBbDmJ9POBxGJpPFdX7cYX4SqRSpTJqVFToSQlzAntd2ouhr5e744vqNBLkUHFNTxHPjr6iqonnPXuRyBTKZjJ27mqmoqkqH1zmJz+sl4PfPBwhJ4+sjE+pRo9EoRaWrU1owHYwNL4uj3dBIjcHH4M9jvw2aNCWYNQGslucvxrKKij+1+6JaS5tqaoisgUejVCKVSRGL4usjExr1V9fUcvHrr+I9NSvRmU2oceFYNlMiKS7GzAx9U8/f958T+AuQiMXU1tY/97uBvr6XnreeqKmrp7KyisePHsV1Xty3fqfTgUqlSiiwICsRSQCQLPtVUUkJEucMljjHQcODg7TfbVuaomm/28bw4GDqfF0D1G/egsvlJBqL7y4Td48aCYeZGBvn5Btn+M//93/jPT3rcFumcLOV8mojXU8CmGv3sK9GDa4AYZEEiThCJI7PtP1uG+13c3fnQzpp2NZIeUUlfb09ROIMdYy7zlRRcQkAc3Nz7Nm3n/7enqTjKzOKewqXrIz65gPsri8gNNRGl6+EyqpKqooVuMdHcWRX+dGcZGfzbo6ffIOvLnxOYWERHrebyYmVhzyKKqtq4lrn3LZ9B5uqa/j6whccPHyE3Xv3ceXy93QKaScFXoBWq+XY66cwmkz88P13TIyP89a59xjo74srA2Tct37/3ByqhVWFm9d/YnR4mJbXDrGzeTe3f/2FnmfP4jUpsAZRazTs29/CKwdaaL15g2++/OfSwpBKpYo7UCluofp83ufyeA4NDjA0OEBD43b2HXiVg4eP0tF+j4777Vm3uUwg/Wwo20jTrmYat++g/W4b/+t//ndmf7eMrNZo8PniW3KPW6gejwetVvcvv+/qfERX5yM21dTSuKOJ1994k67ORzzteiwUoFjjGI0mNjc0sLWhEbFEzOOHD/kf/+2//mFoo1arwxNn2GPcQl2MJfyjwNeBvl4G+nq5+sMlNm/Zyp59+3nnvQ/o7e2hv7eH/r7etRfAsg7ZsHEj1TV11NTWodFo6Ol+ytUfLjE0OPCn54lEoqWY5niIW6ixWGwpSttht//h33ncbu613eFe2x30egObamqoqa3j+MlTuFwuRoYGGRkeZnR4CN86CoPLVYpLSimvqKC8soqKyipmbVYGBwa4+sMlhodWPle8uDsk3ljlhPZM2e2zGE2mPxXqclwuJx3325eqppRtLGdjeQXbm3Zy+sxb+P1+JsbHmJwYZ3JigqmpSUJBYU4oUxhNJopLSikpLaW0tIzSsjJs1hnGRkd52vWYHy5+h8uVWDC40WTCbo8/TiQhoc7arOTnmxns70/kdMZGRxgbHYHW+Z8Li4opLimhpLSUzVsbKCouwe12MWOxMDM9jXVmGqt1BpvVKgzQUohWp8NsLsBcUIC5oJDCwiIKi4rw+XxYpiaZmpzgVutNJifGU3bXy883M2uLf5NjQkK1zsxgLihM5NQXMm2ZYtoyxaOOB0u/KygopKCwEHNBIZu3NpBvNmPKN+Nxu5mdtWGfncVht+Nw2HE6HDidDuHZ93dIJBIMhjwMefOvPKMRo9GE0WTCZMonGApis1qxWWewzkzztOsxM9OWtD6KmQsKE8oJkZBQpy0Wtm5rTOTUFTMzM83MC/5DJlM+eSYTRqORPKOR0rIyDAYDekMeSoUCl8uF2+3C43bjdrvxetx4vV68Hg8+nxef14fP583p1TSVSoVarVnaRKnRaNBqdWi0WnQ6HTq9Hp1ufj++y+XE5XDidNpx2B30PHuG3T6Lfda2tFNjNSksKuLJ4864z0tIqJapSYpLMhPmNztrY3b2xWH3MrkcvU6PVq9Dq9Wh1enQarQUFhUvfaEqtQa1Wk0sFsM/N4ff/9ve9EAgQDAYIBgIEgwFCQVDhELBhRRCYcKR8G95raIRopEo0ViUWDRGLBZd2BK0fJAgWkh2JkIkEj+XqE0ikcyn2ZHMx/cuZiyRy+azxcgXknMoFIr5nAgLeRFUKjVzc3PMLVx0Xq8Xr9eD1+thanKSvt6ehYt0/mLNNopLShMq9ZSQUAOBAPbZWYpLSrIqo18oGMRms2JbwTOQTC5HpVShVClRKJUoFcolYSymFVJrNMhkeUt5mxYTsi1lBxRLFjLtLUtJuZR8MsZ84r95EUej8+kk5wUeIbwsedliLq1QKEQwFMTr9RAIBAkGAwsXkB+/349/bo65ubmc3d1bXFKCfXY27kx+kER+1PGxUTaUbcwqocZDaCGvUqKjV4H42VC2kfGx0YTOTTjj9NjoCBvL/zziXUBgORvLK+ZnexIgYaEmk49dYH2STN2HhIXqcNjxz81RksN7pwRWj5LSUvxzczgcK1sk+j1J1Zka6O9nU3VtMiYE1gmbqmsZSHCBCJIUan9fD9W1glAFXk51bS39fT0Jn5+UUAf7+8nPN2PIy0vGjMAax5CXl9SSO6SgunT3s6fUb9marBmBNUz9lq1JZSiHFAj12ZMutiRZi11gbbNlawPPnnQlZSNpoQ7096HV6pZ2pwoILKeouAStVsdAf19SdpIWKsDjzods274jFaYE1hjbtu/gcefKd5v+ESkRaufDDrbvaEqFKYE1xvYdTSnZSp8Soc7abIyOjtC0qzkV5gTWCE27mhkdHfmXXaiJkBKhAnS032Nn8+5UmRNYA+xs3k1H+72U2EqZUPt65ydza+vqX/KXAuuBRR0s6iJZUiZUgHttd9j9yr5UmhTIUXa/so97bXdSZi+lQu182IFWq2NT9b8mtBVYP2yqrkGr1aU0H1lKhQpw51Yr+1peTbVZgRxiX8ur3LnVmlKbKRfqo44HKBQKNgurVeuSzVsbUCgUz+0oTgUpFypA682faTl4KB2mBbKcloOHaL35c8rtpkWoPc+e4nQ62Lv/QDrMC2Qpe/cfwOl00JNkAMqLSItQAX7+6RqHjhxDp9OnqwmBLEKn03PoyDF+/ulaWuynTajTlinabv/K4WPH09WEQBZx+Nhx2m7fYtoylRb7aRMqwI1rVykuKRXCANc4W7Y2UFxSyo1rV9LWRlqFCnD1x0scO/kGSqUy3U0JZAClUsmxk29w9cdLaW0n7UId6Ovj6eNOTpw6ne6mBDLAiVOnefq4k4G+5OJNX0bahQpw9cfL5JvN7GzesxrNCawSO5v3kG82c/XHy2lva1WECnDpu29548xZIQ/AGqGktJQ3zpzl0nffrkp7qybUqckJLn7zFafPvhN3ZWGB7EIikXL67Dtc/OYrpiYnVqXNVRMqQMf9dkaGhzj79rnVbFYgxZx95xwjw0NLqe5Xg1UVKsCPly6iUCg4fFSYX81FDh89jkKh4MdLF1e13VUXKsBXF76gtn4zzXv2ZqJ5gQRp3rOX2vrNfHXhi1VvOyNC9c/N8eUXn3Hw8BG2NmzLhAsCcbK1YRsHDx/hyy8+i7s8ZCrIiFABZqan+ednf+etc+9RU1uXKTcEVkBNbR1vnXuPf372d2am4y8UkQriLoOeSpxOB1OTk7z/bx8zPj664rpVAqtHVXU1H370CZ///VMGBxLPHZUsGRUqzBePmJ628P75j5gcH0+oWJZAethUXcOHH33Chc8/y3g924wLFcBmtTJtsXD+40+wWKawWeMvmCWQWuo2b+HDjz/hi8/+Rm935kvbZ4VQYb4a4NjYCOfe/xCPx41lKj3hYgIvZ3vTTk6ffZvPPv0L/b29mXYHyCKhAjjsdoYGBzh5+gxSqTThwgQCibO/5SD7DrTwj0//k9Hh4Uy7s4Sosqom64oWGfLyePvdD7BMTXL54uqsJQvAydNnKCou4at//gOnw5Fpd54jK4UK83Xdz557D41Gw3dfXcAVZ313gZWj1+t58+1zeL1evrnwRVYWXMuqW//v6X76BENeHqfPvs2szZaSZFsCz1NbV88HH/07z550ceXS95l25w/JaqECjA4PM2uzcerMW6iUKoaHBjPt0prh0JFjtBw6zKVvv17VAJNEyNpb/+/RaLScPP0mao2WK5cv5mxpy2yguKSE4ydP4/N6uHzxO7xeT6ZdeilZ36MuEgoFefqkC5lMxrsfnIdYjNGR7BmV5gotB1/jrXPv0XbrV679+AOhUDDTLq2InOlRl2M0mjh64nX0BgPXr11JqizMeqGquprDR4/jcjq59uMPObcCmJNCXaShcTuHjhxjZGSIX25cF2IFXkCe0cirhw5TXl7JjZ+u0tX5KNMuJUROCxXmp7EOHjpCy2uHuN36C7dab+L3+zPtVsZRKpXzk/ctr9L68w1u3vgpK6edVkrOC3URvcHAgVcPsm17E3dutXL39q11KVilUsmefft5ZX8Ljx918OsvN3E5nZl2K2nWjFAXyTeb2bvvAI07dnCvrY3799rWxSNBntHIrt172b33FTofdtB2+9c1Fdyz5oS6SF6ekeY9e9m5ew99Pd087Li/JgddVdXV7GjaRU1dPQ/u3aX9blvCpcazmTUr1EWkUilNu5rZ3rQTqVRKV2cnT7o6sc/m1qh3OUaTia0NjTQ0NhIOh3nU8YCO++2Ew+FMu5Y21rxQl1O2sZyGxka2bN2GzWqlu/spfT3dObE0a8rPp6aunvr6LeSbzTx98piuzs51E2G2roS6nJraOmrrN1NTV8+cz8fgQD/DgwOMDA8RDGZ+Elwul1NeUUlF1SaqNlWjUqvp6+mmt/tZykri5BLrVqjL2VBWRuWmaioqq9hYXsG0ZYqJsTEmJyewTE0xM20hGo2mrX2xWExBYRFFxcWUlJRSWlZGYVExoyPDDA8NMjTQz/jYWNrazwUEof4OkUjEhrKNlG4oo7i0hKKiEgoKC7FZZ5i12XA47DidTjwuF16vF5/PR8DvJxgMEAqHiUYixGIxRCIRYokEmVSKXK5AoVSiVqvRaDRo9XoMBgN5eUZM+fnkmwuYmZ7GYplkamKSifExxsdGc3reM9UIQl0BYrGYfLMZoymfvDwjeoMBnU6HRqtFpVKjVCqRyeXIpFLEEgkikYhYLEY0EiEUDhMKBvH7/czN+fB6PLjdblxOJw6HHfusDZvVmtYeey0gCFUgJ8hYAgoBgXgQhCqQEwhCFcgJBKEK5ASCUAVyAkGoAjmBIFSBnEAQqkBOIAhVICcQhCqQEwhCFcgJBKEK5ASCUAVyAkGoAjmBIFSBnEAQqkBOIAhVICcQhCqQE/x/pPzAw42IkSoAAAAASUVORK5CYII=;" vertex="1" parent="7">
                    <mxGeometry x="630" y="220" width="327.86" height="351" as="geometry"/>
                </mxCell>
                <mxCell id="33" value="The area is: 6 mm" style="text;html=1;align=left;verticalAlign=middle;resizable=0;points=[];autosize=1;strokeColor=none;fillColor=none;fontSize=24;fontColor=#000000;" vertex="1" parent="7">
                    <mxGeometry x="210" y="240" width="220" height="40" as="geometry"/>
                </mxCell>
                <mxCell id="34" value="The volume is:&amp;nbsp;904.78 mm³" style="text;html=1;align=left;verticalAlign=middle;resizable=0;points=[];autosize=1;strokeColor=none;fillColor=none;fontSize=24;fontColor=#000000;" vertex="1" parent="7">
                    <mxGeometry x="210" y="320" width="310" height="40" as="geometry"/>
                </mxCell>
            </root>
        </mxGraphModel>
    </diagram>
</mxfile>